# xmcd
#
# Track frame offsets: 
#        150
#        14289
#        34998
#        58890
#        76832
#        90804
#        107581
#        123470
#        140809
#        155175
#        170075
#        183683
#        197340
#        209887
#        228443
#        245948
#        258659
#
# Disc length: 3581 seconds
#
# Revision: 0
# Processed by: cddbd v1.5.2PL0 Copyright (c) Steve Scherf et al.
# Submitted via: ExactAudioCopy v1.0b4
#
DISCID=fe0dfb11
DTITLE=Leo Bud Welch - Live At The Iridium
DYEAR=2017
DGENRE=Blues
TTITLE0=Praise His Name
TTITLE1=Still A Fool
TTITLE2=Got My Mojo Working
TTITLE3=Five Long Years
TTITLE4=No More Doggin'
TTITLE5=Woke Up This Morning
TTITLE6=My Babe
TTITLE7=Sweet Little Angel
TTITLE8=Cadillac Baby
TTITLE9=Po' Boy
TTITLE10=You Don't Have To Go
TTITLE11=Pepticon
TTITLE12=Don't Let The Devil Ride
TTITLE13=Rollin' and Tumblin'
TTITLE14=Good Morning, Little School Girl
TTITLE15=Walkin' The Floor Over You
TTITLE16=Me And My Lord
EXTD=
EXTT0=
EXTT1=
EXTT2=
EXTT3=
EXTT4=
EXTT5=
EXTT6=
EXTT7=
EXTT8=
EXTT9=
EXTT10=
EXTT11=
EXTT12=
EXTT13=
EXTT14=
EXTT15=
EXTT16=
PLAYORDER=
